<?xml version="1.0" encoding="UTF-8" standalone="no"?>
<svg
   xmlns:dc="http://purl.org/dc/elements/1.1/"
   xmlns:cc="http://creativecommons.org/ns#"
   xmlns:rdf="http://www.w3.org/1999/02/22-rdf-syntax-ns#"
   xmlns:svg="http://www.w3.org/2000/svg"
   xmlns="http://www.w3.org/2000/svg"
   viewBox="0 0 3640 2428"
   height="2428"
   width="3640"
   xml:space="preserve"
   id="svg2"
   version="1.1"><metadata
     id="metadata8"><rdf:RDF><cc:Work
         rdf:about=""><dc:format>image/svg+xml</dc:format><dc:type
           rdf:resource="http://purl.org/dc/dcmitype/StillImage" /></cc:Work></rdf:RDF></metadata><defs
     id="defs6" /><g
     transform="matrix(1.3333333,0,0,-1.3333333,0,2428)"
     id="g10"><g
       transform="scale(0.1)"
       id="g12"><g
         transform="scale(1.67485)"
         id="g14"><path
           id="path16"
           style="fill:#ffffff;fill-opacity:1;fill-rule:nonzero;stroke:none"
           d="M 16300,0 H 0 V 10872.6 H 16300 V 0" /></g><g
         transform="scale(1.51696)"
         id="g18"><path
           id="path20"
           style="fill:#ebebeb;fill-opacity:1;fill-rule:nonzero;stroke:none"
           d="m 14705.8,1677.9 c 0,0 -1155.1,1517.51 560,2684.98 1034.2,-1702.42 -560,-2684.98 -560,-2684.98" /></g><g
         transform="scale(1.4163)"
         id="g22"><path
           id="path24"
           style="fill:#e0e0e0;fill-opacity:1;fill-rule:nonzero;stroke:none"
           d="m 15824.8,2093.62 -23.1,4.88 475.1,2277.9 23.2,-4.8 -475.2,-2277.98" /></g><g
         transform="scale(1.42912)"
         id="g26"><path
           id="path28"
           style="fill:#e0e0e0;fill-opacity:1;fill-rule:nonzero;stroke:none"
           d="m 15800.8,2643.86 c 0,0.07 1,1.33 1.4,3.5 l -22.9,4.76 c 1.6,7.41 3.1,15.04 257.5,189.41 123.9,84.95 248.9,168.92 250.2,169.76 l 13,-19.46 c -191.9,-128.81 -483.2,-327.82 -499.2,-347.97" /></g><g
         transform="scale(1.39419)"
         id="g30"><path
           id="path32"
           style="fill:#e0e0e0;fill-opacity:1;fill-rule:nonzero;stroke:none"
           d="m 16281.3,3208.1 -376.3,469.02 18.7,15.06 376.3,-469.02 -18.7,-15.06" /></g><g
         transform="scale(1.42697)"
         id="g34"><path
           id="path36"
           style="fill:#e0e0e0;fill-opacity:1;fill-rule:nonzero;stroke:none"
           d="m 16040.8,3693.21 -14.9,18.22 259.2,212.2 14.9,-18.15 -259.2,-212.27" /></g><g
         transform="scale(1.38767)"
         id="g38"><path
           id="path40"
           style="fill:#e0e0e0;fill-opacity:1;fill-rule:nonzero;stroke:none"
           d="m 16123.9,4277.25 c -771,-890.78 -398.3,-1838.05 -174.6,-2241.9 43.2,51.39 80.6,107.81 110.7,167.77 62.4,124.02 94.6,260.51 131.3,394.4 26.2,95.85 54.9,191.47 66.5,290.06 9.6,80.49 42.2,243.35 40,324.28 -10.1,386.12 -57.5,700.1 -173.9,1065.39" /></g><g
         transform="scale(1.42443)"
         id="g42"><path
           id="path44"
           style="fill:#f5f5f5;fill-opacity:1;fill-rule:nonzero;stroke:none"
           d="m 15411.6,1872.96 c 0,0 888.4,1449.35 -296.2,2955.92 -882,-1699.14 296.2,-2955.92 296.2,-2955.92" /></g><g
         transform="scale(1.34689)"
         id="g46"><path
           id="path48"
           style="fill:#e0e0e0;fill-opacity:1;fill-rule:nonzero;stroke:none"
           d="m 16275.3,2227.21 -256,2554.84 24.7,2.45 256,-2554.77 -24.7,-2.52" /></g><g
         transform="scale(1.34183)"
         id="g50"><path
           id="path52"
           style="fill:#e0e0e0;fill-opacity:1;fill-rule:nonzero;stroke:none"
           d="m 16283.5,2799.31 -300.1,262.78 16.4,18.78 300.2,-262.77 -16.5,-18.79" /></g><g
         transform="scale(1.33498)"
         id="g54"><path
           id="path56"
           style="fill:#e0e0e0;fill-opacity:1;fill-rule:nonzero;stroke:none"
           d="m 16284.3,3644.56 -299.4,241.13 15.7,19.48 299.4,-241.06 -15.7,-19.55" /></g><g
         transform="scale(1.36282)"
         id="g58"><path
           id="path60"
           style="fill:#e0e0e0;fill-opacity:1;fill-rule:nonzero;stroke:none"
           d="m 16008.1,3160.74 -15.6,19 291.9,239.8 15.6,-19.01 -291.9,-239.79" /></g><g
         transform="scale(1.3458)"
         id="g62"><path
           id="path64"
           style="fill:#e0e0e0;fill-opacity:1;fill-rule:nonzero;stroke:none"
           d="m 16126.1,4060.12 -18.8,16.2 173.8,202.33 18.9,-16.27 -173.9,-202.26" /></g><g
         transform="scale(1.43719)"
         id="g66"><path
           id="path68"
           style="fill:#ebebeb;fill-opacity:1;fill-rule:nonzero;stroke:none"
           d="M 16300,2332.26 H 14818.2 V 710.971 H 16300 V 2332.26" /></g><g
         transform="scale(1.31923)"
         id="g70"><path
           id="path72"
           style="fill:#f5f5f5;fill-opacity:1;fill-rule:nonzero;stroke:none"
           d="m 16300,8172.71 h -2402 v 2401.99 h 2402 V 8172.71" /></g><g
         transform="scale(1.519)"
         id="g74"><path
           id="path76"
           style="fill:#f5f5f5;fill-opacity:1;fill-rule:nonzero;stroke:none"
           d="m 16300,7097.87 h -2086 v 2086.06 h 2086 V 7097.87" /></g><g
         transform="scale(1.519)"
         id="g78"><path
           id="path80"
           style="fill:#f5f5f5;fill-opacity:1;fill-rule:nonzero;stroke:none"
           d="m 16300,4945.95 h -2086 v 2086.08 h 2086 V 4945.95" /></g><g
         transform="scale(1.31923)"
         id="g82"><path
           id="path84"
           style="fill:#f5f5f5;fill-opacity:1;fill-rule:nonzero;stroke:none"
           d="m 16300,5694.93 h -2402 v 2401.98 h 2402 V 5694.93" /></g><g
         transform="scale(1.2658)"
         id="g86"><path
           id="path88"
           style="fill:#ebebeb;fill-opacity:1;fill-rule:nonzero;stroke:none"
           d="m 16240.4,11021 c 0,0 59.6,-1521.19 -1360.1,-2503.32 h -395.7 V 11021 h 1755.8" /></g><g
         transform="scale(1.18997)"
         id="g90"><path
           id="path92"
           style="fill:#ebebeb;fill-opacity:1;fill-rule:nonzero;stroke:none"
           d="m 15811.7,8976.42 c 0,0 488.3,-841.63 488.3,-2662.89 h -892.4 v 2662.89 h 404.1" /></g><g
         transform="scale(1.519)"
         id="g94"><path
           id="path96"
           style="fill:#ebebeb;fill-opacity:1;fill-rule:nonzero;stroke:none"
           d="m 14836.9,9183.93 c 0,0 -49.6,-1267.64 1133.5,-2086.06 h 329.6 v 2086.06 h -1463.1" /></g><g
         transform="scale(1.519)"
         id="g98"><path
           id="path100"
           style="fill:#ebebeb;fill-opacity:1;fill-rule:nonzero;stroke:none"
           d="m 15983.5,7032.03 c 0,0 -382.5,-659.32 -382.5,-2086.08 h 699 v 2086.08 h -316.5" /></g><path
         id="path102"
         style="fill:#5e83fc;fill-opacity:1;fill-rule:nonzero;stroke:none"
         d="m 7622.24,11604.8 c -227.06,-65.5 -445.03,-82.5 -805.55,62.1 -105.44,42.3 -279.04,150.4 -328.86,252.5 -49.81,102.1 -33.4,217.3 62.66,277.9 106.99,67.6 147.17,21.7 266.27,-21 119.09,-42.7 199.65,-10.7 233.33,55.7 60.41,118.9 -100.07,251.9 -223.08,303.4 -123.02,51.6 -271.19,82.3 -338.5,197.5 -87.66,149.9 64.67,352.8 233.99,314.1 109.97,-25.1 222.73,-100.7 292.08,-11.7 63.23,81 -12.83,201.4 -95.99,262.7 -83.16,61.2 -223.19,206.6 -158.29,404.7 40.58,123.9 195.19,159.4 319.82,74 121.6,-83.4 195.92,-258.8 241.01,-395.9 41.14,-125.2 152.64,-194.7 250.3,-118 52.56,41.2 63.11,132.5 103.11,186.1 71.09,95.1 241.28,21.6 268.17,-94 26.89,-115.7 -38.12,-231.5 -106.81,-328.4 -68.7,-96.9 -147.02,-197.9 -151.26,-316.6 -4.24,-118.7 113.38,-245.9 222.73,-199.5 86.78,36.7 125.5,161 219.42,168.6 111.89,9.1 151.47,-147.3 134.76,-258.3 -55.84,-371 -412.25,-750.5 -639.31,-815.9" /><path
         id="path104"
         style="fill:#263238;fill-opacity:1;fill-rule:nonzero;stroke:none"
         d="m 7704.94,11045.1 c -30.84,207.9 -81.07,453 -149.33,728.3 l -0.78,3.2 -656.81,118.3 3.73,20.7 647.51,-116.6 -1.88,7.5 c -63.86,254.6 -142.96,535.3 -235.09,834.4 l -0.8,2.6 -592.67,162.7 5.56,20.3 579.73,-159.1 -2.7,8.7 c -159.43,514.3 -300.61,899.9 -301.55,902.2 l -1.67,4.1 19.45,8 1.66,-4 c 0.79,-2 125.01,-337.9 275.51,-815.4 l 2.38,-7.5 380.49,356.5 14.38,-15.4 -387.87,-363.4 0.94,-3 c 93.09,-297 174.04,-578.6 240.57,-836.9 l 1.93,-7.4 450.81,359.9 13.14,-16.5 -458.22,-365.8 0.8,-3.1 c 79.28,-311.1 137.01,-587.1 171.6,-820.3 l 0.64,-4.2 -20.83,-3.1 -0.63,4.3" /><path
         id="path106"
         style="fill:#ebebeb;fill-opacity:1;fill-rule:nonzero;stroke:none"
         d="m 8304.06,10211.3 c 28.26,0 52.96,19.6 58.62,47.3 13.31,65.1 20.41,133.1 20.41,203.2 0,459.6 -303.67,832.2 -678.26,832.2 -374.59,0 -678.25,-372.6 -678.25,-832.2 0,-70.1 7.09,-138.1 20.4,-203.2 5.67,-27.7 30.35,-47.3 58.62,-47.3 h 1198.46" /><path
         id="path108"
         style="fill:#f5f5f5;fill-opacity:1;fill-rule:nonzero;stroke:none"
         d="M 9414.17,9898.14 H 3240.29 v 313.16 h 6173.88 v -313.16" /><path
         id="path110"
         style="fill:#ebebeb;fill-opacity:1;fill-rule:nonzero;stroke:none"
         d="m 4825.21,11368.6 h -298.15 v -1157.3 h 298.15 v 1157.3" /><path
         id="path112"
         style="fill:#ebebeb;fill-opacity:1;fill-rule:nonzero;stroke:none"
         d="m 5153.37,11568.6 h -298.16 v -1357.3 h 298.16 v 1357.3" /><path
         id="path114"
         style="fill:#ebebeb;fill-opacity:1;fill-rule:nonzero;stroke:none"
         d="M 4497.06,11488.6 H 4198.9 v -1277.3 h 298.16 v 1277.3" /><path
         id="path116"
         style="fill:#ebebeb;fill-opacity:1;fill-rule:nonzero;stroke:none"
         d="m 5474.76,11405.5 -291.39,-63.2 245.07,-1131 291.4,63.1 -245.08,1131.1" /><g
         transform="scale(1.49864)"
         id="g118"><path
           id="path120"
           style="fill:#263238;fill-opacity:1;fill-rule:nonzero;stroke:none"
           d="M 1916.43,681.817 V 661.799 H 16300 v 20.018 H 1916.43" /></g><g
         transform="scale(1.2774)"
         id="g122"><path
           id="path124"
           style="fill:#263238;fill-opacity:1;fill-rule:nonzero;stroke:none"
           d="m 15748.2,2402.69 -1028.1,15.43 v 294.82 h 103.2 v -193.13 l 842.2,-12.61 513.9,2329.97 -220.1,74.77 33.2,97.69 307.5,-104.43 -551.8,-2502.51" /></g><g
         transform="scale(1.08507)"
         id="g126"><path
           id="path128"
           style="fill:#263238;fill-opacity:1;fill-rule:nonzero;stroke:none"
           d="m 16300,1103.8 h -281.3 V 3390.11 H 16300 V 1103.8" /></g><g
         transform="scale(1.2668)"
         id="g130"><path
           id="path132"
           style="fill:#465a63;fill-opacity:1;fill-rule:nonzero;stroke:none"
           d="m 15598,3851.9 -238.6,81.38 c -69.3,23.61 -103.1,108.15 -75.6,188.91 l 499.2,1463.76 c 27.5,80.75 106,127.01 175.3,103.41 l 238.6,-81.39 c 69.2,-23.6 103.1,-108.14 75.6,-188.9 l -499.3,-1463.76 c -27.4,-80.68 -105.9,-127.01 -175.2,-103.41" /></g><g
         transform="scale(1.25909)"
         id="g134"><path
           id="path136"
           style="fill:#ededed;fill-opacity:1;fill-rule:nonzero;stroke:none"
           d="m 15453.4,3957.37 v 0 c -53.2,18.11 -85.6,72.04 -85.6,132.64 0,-60.6 32.4,-114.53 85.6,-132.64 v 0 m -84.2,155.04 c 1.6,11.59 4.3,23.35 8.2,35.02 l 502.3,1472.73 -502.3,-1472.73 c -3.9,-11.67 -6.6,-23.43 -8.2,-35.02 m 930.8,1528.48 v 0.08 c 0,0 0,0 0,-0.08 m -0.4,0.16 c -0.1,0.08 -0.1,0.08 -0.2,0.08 0.1,0 0.1,0 0.2,-0.08 m -0.4,0.16 c -0.1,0.08 -0.2,0.08 -0.2,0.08 0,0 0.1,0 0.2,-0.08 m -0.5,0.24 c -0.1,0 -0.2,0.07 -0.4,0.07 0.2,0 0.3,-0.07 0.4,-0.07 m -0.6,0.15 c -0.1,0.08 -0.2,0.08 -0.2,0.16 0,-0.08 0.1,-0.08 0.2,-0.16 m -0.4,0.16 c -0.1,0.08 -0.2,0.08 -0.3,0.16 0.1,-0.08 0.2,-0.08 0.3,-0.16 m -0.5,0.16 c -0.1,0.08 -0.1,0.08 -0.2,0.08 0.1,0 0.1,0 0.2,-0.08 m -0.5,0.16 c 0,0.08 -0.1,0.08 -0.2,0.08 0.1,0 0.2,0 0.2,-0.08 m -380.1,40.67 c 27,29.22 62.7,46.7 98.9,47.57 -36.2,-0.87 -71.9,-18.35 -98.9,-47.57 m 103,47.65 c -0.4,0 -0.8,0 -1.2,0 v 0 c 0.4,0 0.8,0 1.2,0" /></g><g
         transform="scale(1.26507)"
         id="g138"><path
           id="path140"
           style="fill:#41545c;fill-opacity:1;fill-rule:nonzero;stroke:none"
           d="m 15451.2,3914.57 -70.8,24.11 c -52.9,18.03 -85.2,71.7 -85.2,132.01 0,7.35 0.5,14.78 1.5,22.29 1.5,11.54 4.1,23.24 8.1,34.86 l 499.9,1465.77 c 8.2,24.19 21,45.3 36.7,62.29 26.9,29.09 62.4,46.48 98.5,47.35 0.9,0.08 1.9,0.08 2.9,0.08 0.4,0 0.8,0 1.2,0 12.1,-0.15 24.2,-2.13 36.2,-6.16 l 238.9,-81.5 c 0.2,0 0.4,-0.08 0.4,-0.16 0.1,0 0.2,0 0.3,-0.08 0,0 0.1,0 0.2,-0.08 0.1,0 0.2,0 0.2,-0.08 0.1,0 0.2,0 0.2,0 0.2,-0.07 0.2,-0.07 0.3,-0.15 0,0 0.1,0 0.2,0 0.1,-0.09 0.1,-0.09 0.2,-0.16 0.1,0 0.2,0 0.2,-0.08 0.2,0 0.3,-0.08 0.4,-0.08 0.1,-0.08 0.2,-0.08 0.3,-0.16 0.1,0 0.1,0 0.2,-0.08 0.1,0 0.2,0 0.3,-0.08 0,0 0,0 0.1,-0.08 0.2,0 0.2,-0.08 0.4,-0.08 v -0.07 c 39.9,-15.18 67.1,-51.15 77,-94.39 -11.1,-6.95 -22.2,-13.91 -33.1,-21.02 -60.3,-39.13 -116.2,-84.9 -168.5,-134.3 -84,-79.45 -159.5,-169.24 -213.9,-271.37 -37.8,-71.22 -65.2,-147.58 -92.3,-223.55 -113.7,-318.4 -227.3,-636.72 -341,-955.05" /></g><path
         id="path142"
         style="fill:#263238;fill-opacity:1;fill-rule:nonzero;stroke:none"
         d="m 16162.5,4383.7 c 0,0 -1907,-470.3 -2564.9,-2190 0,0 -965.7,305.1 -889.1,728.6 76.5,423.6 623.2,543.9 788.9,-205.3 216.8,490.3 722.4,1391.4 2033,1931 l 632.1,-264.3" /><g
         transform="scale(1.18639)"
         id="g144"><path
           id="path146"
           style="fill:#465a63;fill-opacity:1;fill-rule:nonzero;stroke:none"
           d="m 16135.1,2791.4 h -2672.5 c -91.1,0 -164.9,73.84 -164.9,164.87 v 362.7 c 0,91.03 73.8,164.87 164.9,164.87 h 2672.5 c 91.1,0 164.9,-73.84 164.9,-164.87 v -362.7 c 0,-91.03 -73.8,-164.87 -164.9,-164.87" /></g><g
         transform="scale(1.17577)"
         id="g148"><path
           id="path150"
           style="fill:#ededed;fill-opacity:1;fill-rule:nonzero;stroke:none"
           d="m 16300,3514.22 c 0,0 -0.1,0 -0.1,0.08 0,-0.08 0.1,-0.08 0.1,-0.08 m -0.5,0.08 v 0 0 m -1.6,0.17 v 0 0 m -0.5,0.09 v 0 0 m -2.1,0.17 c -0.1,0 -0.2,0 -0.3,0 0.1,0 0.2,0 0.3,0 m -0.6,0 c -0.1,0.08 -0.1,0.08 -0.1,0.08 0,0 0,0 0.1,-0.08 m -0.5,0.08 h -0.1 0.1 m -0.5,0 v 0 0 m -0.5,0.09 c -0.1,0 -0.2,0 -0.2,0 0,0 0.1,0 0.2,0 m -1.1,0.08 h -0.1 0.1 m -0.5,0 c -0.2,0 -0.3,0 -0.4,0.09 0.1,-0.09 0.2,-0.09 0.4,-0.09 m -0.5,0.09 c -0.1,0 -0.3,0 -0.4,0 0.1,0 0.3,0 0.4,0 m -0.5,0 c -0.2,0 -0.4,0 -0.5,0 0.1,0 0.3,0 0.5,0 m -0.6,0 c -0.1,0 -0.3,0 -0.4,0.08 0.1,-0.08 0.3,-0.08 0.4,-0.08 m -0.5,0.08 c -0.1,0 -0.2,0 -0.3,0 0.1,0 0.2,0 0.3,0 m -0.6,0 c 0,0 0,0 -0.1,0 0.1,0 0.1,0 0.1,0 m -0.5,0 c -0.1,0 -0.1,0 -0.1,0 0,0 0,0 0.1,0 m -0.6,0 c 0,0.09 0,0.09 0,0.09 v -0.09 m -0.5,0.09 c -0.3,0 -0.6,0 -0.9,0 0.3,0 0.6,0 0.9,0 m -1,0 c -0.1,0 -0.2,0 -0.2,0 0,0 0.1,0 0.2,0 m -1.1,0.08 c -0.1,0 -0.2,0 -0.2,0 0,0 0.1,0 0.2,0 m -0.5,0 c -0.1,0 -0.1,0 -0.1,0 0,0 0,0 0.1,0 m -0.6,0 h -0.1 0.1 m -2702.8,0 v 0 0 m 2701.8,0 c -0.1,0 -0.3,0 -0.4,0 0.1,0 0.3,0 0.4,0 m -2700.8,0 h 0.1 c -0.1,0 -0.1,0 -0.1,0 m 2700.3,0 c -0.6,0 -1.1,0 -1.6,0 0.5,0 1,0 1.6,0 m -2699.3,0 c 0,0 0,0 0.1,0 -0.1,0 -0.1,0 -0.1,0" /></g><g
         transform="scale(1.18639)"
         id="g152"><path
           id="path154"
           style="fill:#41545c;fill-opacity:1;fill-rule:nonzero;stroke:none"
           d="m 14202.9,2791.42 h -403 c 8.9,12.3 18.4,24.19 28.1,35.57 122.3,142.87 261.2,271.33 413.1,381.91 -295.6,77.97 -591.2,156.02 -886.9,234.07 28.4,24.79 65.1,40.13 105.6,40.89 v 0 c 0.3,0 0.6,0 0.9,0 0,0 0,0 0.1,0 0.2,0 0.6,0 0.9,0 0,0 0,0 0.1,0 0.3,0 0.6,0 0.8,0 h 2672.6 v 0 c 0.5,0 1,0 1.6,0 h 0.1 c 0.2,0 0.3,0 0.4,0 0.4,0 0.6,0 0.9,0 h 0.1 c 0.2,0 0.4,0 0.5,0 0,0 0,0 0.1,0 0.1,0 0.2,0 0.4,0 0,0 0,0 0.1,0 0.4,-0.09 0.6,-0.09 1,-0.09 0,0 0,0 0.1,0 h 0.1 c 0.3,0 0.6,0 0.9,0 0.2,0 0.3,0 0.5,0 0,0 0,0 0,-0.08 0.2,0 0.3,0 0.5,0 0,0 0,0 0.1,0 0.1,0 0.3,0 0.4,0 0.1,0 0.1,0 0.1,0 0.1,0 0.2,0 0.3,0 0.1,0 0.2,0 0.2,0 0.1,0 0.1,0 0.2,0 0.1,-0.08 0.3,-0.08 0.3,-0.08 0.1,0 0.1,0 0.2,0 0.1,0 0.3,0 0.4,0 0,0 0.1,0 0.2,0 0.1,0 0.3,0 0.3,0 h 0.1 c 0.2,-0.09 0.3,-0.09 0.5,-0.09 0.1,0 0.2,0 0.4,0 h 0.1 c 0.3,0 0.5,-0.09 0.9,-0.09 0,0 0.1,0 0.2,0 0.1,0 0.3,0 0.5,-0.08 v 0 c 0,0 0.2,0 0.4,0 h 0.1 c 0,0 0.1,0 0.3,0 0.1,0 0.1,0 0.2,-0.08 0.1,0 0.1,0 0.2,0 0.1,0 0.2,0 0.4,0 0.6,-0.09 1.3,-0.09 2,-0.17 v 0 c 0.2,0 0.3,-0.09 0.5,-0.09 v 0 c 0.5,-0.08 1,-0.08 1.6,-0.17 v 0 c 0.2,0 0.2,0 0.4,0 0,-0.08 0.1,-0.08 0.1,-0.08 82,-9.36 145.7,-78.89 145.9,-163.35 -100.8,-52.18 -209,-90.02 -320.7,-110.51 -43,-7.84 -104.5,-10.11 -171.1,-10.11 -48.4,0 -99.5,1.18 -148.1,2.45 -48.6,1.17 -94.6,2.44 -133,2.44 -14.9,0 -28.5,-0.17 -40.7,-0.59 -468.5,-16.78 -826,-84.88 -1208.6,-355.79 -25.2,-17.95 -50.1,-36.83 -74.9,-55.88" /></g><g
         transform="scale(1.17579)"
         id="g156"><path
           id="path158"
           style="fill:#263238;fill-opacity:1;fill-rule:nonzero;stroke:none"
           d="m 12901.2,4504.63 c -52,-653.61 137.4,-887.75 1310,-1040.16 1996.5,-259.56 2061.9,168.15 2075.4,205.06 13.4,36.91 -3385.4,835.1 -3385.4,835.1" /></g><g
         transform="scale(1.28653)"
         id="g160"><path
           id="path162"
           style="fill:#fbd1c6;fill-opacity:1;fill-rule:nonzero;stroke:none"
           d="m 15652.7,5465.93 c 129.6,478.49 647.3,2748.67 -963.9,3265.35 -2265.1,726.36 -2614,-2447.73 -2614,-2447.73 722.9,-660.92 3524.2,-864.18 3577.9,-817.62" /></g><g
         transform="scale(1.10474)"
         id="g164"><path
           id="path166"
           style="fill:#263238;fill-opacity:1;fill-rule:nonzero;stroke:none"
           d="m 16299,7438.69 c -3.8,62.62 -25.1,122.53 -54.8,175.47 -29.9,53.05 -67.7,100.45 -109.8,142.54 -42.2,42.14 -88.6,79.59 -138.5,112.06 -25.1,16.26 -51,31.37 -78.1,45 -27.1,13.7 -55.5,25.58 -86.9,34.74 -29.7,8.25 -57.5,15.6 -87.2,21.03 -29.5,5.2 -59.4,9.12 -89.8,11.19 -30.3,2.19 -61.2,1.68 -92.1,-1.09 -30.8,-2.82 -61.9,-7.74 -92.2,-16.59 -30.3,-8.73 -60.2,-19.89 -88.2,-35.04 -27.9,-15.24 -54.6,-32.97 -78.1,-53.98 -47.8,-41.41 -84,-93.5 -108.4,-148.47 -7.7,-17.47 0.2,-37.9 17.7,-45.63 15,-6.64 32.1,-1.79 41.6,10.74 l 0.5,0.62 c 31.8,42.18 67.5,79.24 108.3,107.32 40.7,28.29 85.8,47.87 134,58.93 24.1,5.27 48.7,9.3 73.9,11.06 25.1,1.77 50.7,1.62 76.5,0.5 25.7,-1.36 51.6,-4.33 77.6,-8.49 25.7,-3.75 52.6,-9.21 77.4,-15.14 22.7,-5.92 46.6,-15.42 70.2,-26.05 23.5,-10.73 46.8,-23.11 69.4,-36.65 45.2,-27.29 88.3,-58.78 127.7,-93.97 39.1,-35.5 74.8,-74.54 103.1,-117.72 28.4,-43 49.5,-90.12 57.8,-139.61 l 0.1,-0.45 c 3,-18.74 20.8,-31.51 39.5,-28.34 17.6,2.9 29.8,18.65 28.8,36.02" /></g><g
         transform="scale(1.1802)"
         id="g168"><path
           id="path170"
           style="fill:#263238;fill-opacity:1;fill-rule:nonzero;stroke:none"
           d="m 16289.3,7944.29 c -38,35.21 -76.2,67.99 -110.4,104.19 -17.6,17.56 -34.5,35.47 -50.1,54.47 -16.7,17.86 -31.1,37.6 -46.1,56.69 -30.1,38.22 -53.8,79.96 -78.8,120.93 -24.7,40.89 -49.3,83.57 -75.7,125.08 l -1.9,3.04 c -7.3,11.41 -22.8,15.06 -34.8,8.16 -7,-4.08 -11.3,-11.07 -12,-18.35 -5.8,-58.26 8.4,-111.27 30.3,-161.63 22.3,-50.13 54.5,-95.48 89.3,-137.96 36.5,-41.26 75.6,-80.55 120.7,-112.53 44,-33.09 92.5,-59.99 142.8,-81.65 12.6,-5.41 27.4,-0.09 33,11.88 4.4,9.36 1.9,20.01 -5.3,26.81 l -1,0.87" /></g><g
         transform="scale(1.06024)"
         id="g172"><path
           id="path174"
           style="fill:#263238;fill-opacity:1;fill-rule:nonzero;stroke:none"
           d="m 15625.5,9597.85 c 61.2,-11.16 124.2,-16.17 187.4,-11.65 63.5,2.67 126.2,17.06 187.4,35.59 60.3,20.82 119.6,47.17 171.2,84.43 51.4,37.67 96.1,83.01 122.6,144.22 5.9,13.67 -1,29.35 -15.3,35.03 -8.5,3.38 -17.8,2.44 -25.2,-1.75 l -3.9,-2.25 -143.7,-83.15 c -47.6,-26.21 -95.2,-52.97 -147.1,-71.95 -25.9,-9.29 -51.5,-20.01 -78.6,-26.58 l -40.3,-11.93 -41.2,-9.15 c -27.4,-7.83 -55.9,-9.91 -84.1,-16.17 -28.5,-4.26 -57.5,-7.29 -86.8,-12.37 l -2.2,-0.36 c -15.1,-2.62 -25,-16.36 -22.2,-30.72 2.1,-11.04 11.2,-19.24 22,-21.24" /></g><g
         transform="scale(1.15625)"
         id="g176"><path
           id="path178"
           style="fill:#263238;fill-opacity:1;fill-rule:nonzero;stroke:none"
           d="m 15992.5,7982.77 c -43,-134.55 -18.7,-260.96 54.3,-282.35 73,-21.38 167.1,70.34 210.1,204.88 43.1,134.55 18.8,260.97 -54.2,282.36 -73,21.39 -167.1,-70.34 -210.2,-204.89" /></g><g
         transform="scale(1.04688)"
         id="g180"><path
           id="path182"
           style="fill:#263238;fill-opacity:1;fill-rule:nonzero;stroke:none"
           d="m 15960.4,9332.31 c -47.6,-148.59 -20.7,-288.2 59.9,-311.83 80.7,-23.63 184.7,77.69 232.1,226.3 47.6,148.59 20.9,288.22 -59.9,311.83 -80.6,23.62 -184.5,-77.69 -232.1,-226.3" /></g><g
         transform="scale(1.38152)"
         id="g184"><path
           id="path186"
           style="fill:#263238;fill-opacity:1;fill-rule:nonzero;stroke:none"
           d="m 11915.3,9494 c 0,0 -1014.2,-1943.72 2303.4,-2273.08 L 14140.9,6540 c 0,0 335.3,196.76 349.1,-116.79 15.8,-361 -315.1,-143.13 -315.1,-143.13 0,0 142.9,-827.11 401.6,-1189.97 54.3,41.33 1723.5,2846.36 259.9,2952.34 4.6,82.73 -59.6,655.96 -853.6,937.98 -1200.9,426.54 -1420.1,-507.89 -2067.5,513.57" /></g><g
         transform="scale(1.23544)"
         id="g188"><path
           id="path190"
           style="fill:#5e83fa;fill-opacity:1;fill-rule:nonzero;stroke:none"
           d="m 12574.1,6543.41 -295.8,-2256.28 c 0,0 1199.4,-582.79 3221.9,-794.77 l 799.8,2199.61 c 0,0 -2562.2,165.04 -3725.9,851.44" /></g><g
         transform="scale(1.37952)"
         id="g192"><path
           id="path194"
           style="fill:#fbd1c6;fill-opacity:1;fill-rule:nonzero;stroke:none"
           d="m 14597.7,5097.52 -174.4,-338.89 c 1132.4,-1139.24 -763.3,-1340.55 -778.9,-1342.28 -71.7,-7.69 -80.7,-68.87 -64.7,-98.88 10.4,-19.57 37.3,-28.2 69,-25.15 -21.5,-22.26 -30.2,-47.85 -19.9,-67.35 10.5,-19.57 37.3,-28.2 69.1,-25.15 -21.6,-22.25 -30.3,-47.77 -19.8,-67.34 10.3,-19.57 37.2,-28.2 68.9,-25.16 -21.5,-22.25 -30.2,-47.77 -19.8,-67.34 16,-30.08 70.8,-34.5 122.4,-10 l 0.3,-0.44 c 2450.1,586.58 747.8,2067.98 747.8,2067.98" /></g><g
         transform="scale(1.26058)"
         id="g196"><path
           id="path198"
           style="fill:#5e83fc;fill-opacity:1;fill-rule:nonzero;stroke:none"
           d="m 15784.1,5207.62 190.9,370.86 c 0,0 164.3,-142.87 325,-360.63 l -328,-223.15 c -51.6,67.43 -113.8,138.35 -187.9,212.92" /></g><g
         transform="scale(1.00955)"
         id="g200"><path
           id="path202"
           style="fill:#fbd1c6;fill-opacity:1;fill-rule:nonzero;stroke:none"
           d="m 15387.7,8007.56 -56.2,-524.79 c -2742,1291.15 -1100.6,3410.43 224,3794.23 351.2,101.8 744.5,26.9 720.8,-133.5 -15.5,-105.1 -339.1,113.9 -598.5,11.4 43.6,-1.4 78.2,-17.7 88,-45.9 9.8,-28.2 -7.5,-61.2 -41.5,-87.5 43.7,-1.4 78.1,-17.7 88,-45.9 9.9,-28.2 -7.6,-61.2 -41.5,-87.6 43.6,-1.3 78.1,-17.6 88,-45.8 15.1,-43.4 8.3,-76.9 -108.8,-123.1 -2057.4,-812.26 -1503.4,-2197.37 -362.3,-2711.54" /></g><path
         id="path204"
         style="fill:#5e83fc;fill-opacity:1;fill-rule:nonzero;stroke:none"
         d="m 15534.6,8084 -56.7,-529.8 c -168.9,79.6 -321.1,162.3 -458.2,247.5 l 320.7,381.4 c 62.5,-35.7 127.3,-68.9 194.2,-99.1" /><g
         transform="scale(1.14728)"
         id="g206"><path
           id="path208"
           style="fill:#263238;fill-opacity:1;fill-rule:nonzero;stroke:none"
           d="m 16300,890.632 h -1986.8 c 0,169.358 137.2,306.548 306.6,306.548 h 1373.6 c 169.3,0 306.6,-137.19 306.6,-306.548" /></g><g
         transform="scale(1.18638)"
         id="g210"><path
           id="path212"
           style="fill:#fbdbbf;fill-opacity:1;fill-rule:nonzero;stroke:none"
           d="m 16299.9,2236.72 c 0.1,5.23 0.1,10.28 -0.1,14.83 -0.2,-4.8 -0.2,-9.77 0.1,-14.83" /></g><g
         transform="scale(1.10667)"
         id="g214"><path
           id="path216"
           style="fill:#263238;fill-opacity:1;fill-rule:nonzero;stroke:none"
           d="m 16300,3643.37 c 0,0 -1669.8,-411.78 -2289,-1906.9 -16.7,-40.48 -61.8,-61.26 -103,-46.17 -209.4,76.99 -785.8,318.79 -729.1,632.62 69.1,382.68 563.2,491.38 712.9,-185.51 195.9,442.95 652.8,1257.28 1837.1,1744.78 l 571.1,-238.82" /></g><g
         transform="scale(1.05735)"
         id="g218"><path
           id="path220"
           style="fill:#465a63;fill-opacity:1;fill-rule:nonzero;stroke:none"
           d="M 4434.84,5510.85 V 5113.73 L 16300,5111.65 v 397.12 l -11865.16,2.08" /></g><g
         transform="scale(1.05735)"
         id="g222"><path
           id="path224"
           style="fill:#263238;fill-opacity:1;fill-rule:nonzero;stroke:none"
           d="M 16300,5509.53 H 12061.2 V 5112.41 H 16300 v 397.12" /></g><path
         id="path226"
         style="fill:#465a63;fill-opacity:1;fill-rule:nonzero;stroke:none"
         d="m 4815.05,1021.8 h -125.88 l 600,4385.2 h 425.88 l -900,-4385.2" /><path
         id="path228"
         style="fill:#465a63;fill-opacity:1;fill-rule:nonzero;stroke:none"
         d="m 12627,1021.8 h 125.9 l -600,4385.2 H 11727 l 900,-4385.2" /><g
         transform="scale(1.03894)"
         id="g230"><path
           id="path232"
           style="fill:#465a63;fill-opacity:1;fill-rule:nonzero;stroke:none"
           d="m 16178.8,983.499 h 121.2 l -577.5,4220.821 h -409.9 l 866.2,-4220.821" /></g><path
         id="path234"
         style="fill:#263238;fill-opacity:1;fill-rule:nonzero;stroke:none"
         d="m 8996.93,1021.8 h -125.88 l 600,4385.2 h 425.88 l -900,-4385.2" /><path
         id="path236"
         style="fill:#e0e0e0;fill-opacity:1;fill-rule:nonzero;stroke:none"
         d="M 13843.6,5994.5 H 11368.2 V 5906 c 0,-44.5 36,-80.5 80.4,-80.5 h 2314.5 c 44.4,0 80.5,36 80.5,80.5 v 88.5" /><path
         id="path238"
         style="fill:#ebebeb;fill-opacity:1;fill-rule:nonzero;stroke:none"
         d="m 7911.46,5825.5 h 3605.64 c 113.1,0 191.2,91.7 174.6,204.7 l -328.1,2231.55 c -16.6,113.06 -121.7,204.71 -234.8,204.71 H 7523.19 c -113.06,0 -191.24,-91.65 -174.62,-204.71 L 7676.65,6030.2 c 16.62,-113 121.75,-204.7 234.81,-204.7" /><path
         id="path240"
         style="fill:#ffffff;fill-opacity:1;fill-rule:nonzero;stroke:none"
         d="m 9218.28,7193.9 c 23.93,-162.8 175.33,-294.8 338.16,-294.8 162.82,0 275.41,132 251.47,294.8 -23.94,162.8 -175.34,294.8 -338.16,294.8 -162.82,0 -275.41,-132 -251.47,-294.8" /><path
         id="path242"
         style="fill:#e0e0e0;fill-opacity:1;fill-rule:nonzero;stroke:none"
         d="m 7676.65,6030.2 -328.08,2231.55 c -16.62,113.06 61.56,204.71 174.62,204.71 h 646.4 C 8582.52,7216.2 9575.18,6229.8 10829.4,5825.5 H 7911.46 c -113.06,0 -218.19,91.7 -234.81,204.7" /><path
         id="path244"
         style="fill:#ebebeb;fill-opacity:1;fill-rule:nonzero;stroke:none"
         d="m 15314.3,15253.6 -1220,307.4 -200,732.5 h -488.6 l -200,-732.5 -1220,-307.4 -180,-447.4 h 3688.6 l -180,447.4" /><path
         id="path246"
         style="fill:#ebebeb;fill-opacity:1;fill-rule:nonzero;stroke:none"
         d="m 13650,14372.8 c -244.5,0 -443.4,198.9 -443.4,443.4 h 50 c 0,-216.9 176.5,-393.4 393.4,-393.4 216.9,0 393.4,176.5 393.4,393.4 h 50 c 0,-244.5 -198.9,-443.4 -443.4,-443.4" /><g
         transform="scale(1.11718)"
         id="g248"><path
           id="path250"
           style="fill:#ebebeb;fill-opacity:1;fill-rule:nonzero;stroke:none"
           d="m 12240.7,14512.7 h -44.8 V 16300 h 44.8 v -1787.3" /></g><path
         id="path252"
         style="fill:#5e83fc;fill-opacity:1;fill-rule:nonzero;stroke:none"
         d="m 12385.1,11066.7 c -331.7,-24.2 -627.5,-303 -609,-648 17.1,-319 292.3,-592.89 651.6,-566.69 348.3,25.4 581.9,325.89 563.2,676.19 -19.6,366 -301.8,560.7 -605.8,538.5" /><path
         id="path254"
         style="fill:#5e83fc;fill-opacity:1;fill-rule:nonzero;stroke:none"
         d="m 13870.2,12677.5 c -43.2,810.4 -610.8,1356.9 -1456.6,1295.3 -657.9,-48 -1230.1,-551.7 -1253.3,-1156.9 l 744.7,-229.2 c 3.2,252.2 203,461 462.7,479.9 243.2,17.7 434.6,-136.2 447.3,-371.5 13.4,-251.1 -204.3,-434.8 -558.2,-460.7 -110.5,-8 -244.3,3.2 -395.7,34.2 l 55.5,-1040.5 877.1,-4.3 -27.2,302.4 c 585.9,42.8 1133.1,602.3 1103.7,1151.3" /><path
         id="path256"
         style="fill:#f2f2f2;fill-opacity:1;fill-rule:nonzero;stroke:none"
         d="m 12793.7,11223.8 -877.1,4.3 -2,38.6 v 0 l 2,-38.6 877.1,-4.3 m 1076.5,1453.7 c 0,0.7 0,1.4 -0.1,2.1 0.1,-0.7 0.1,-1.4 0.1,-2.1 m -0.1,2.8 c 0,0.5 -0.1,0.9 -0.1,1.4 0,-0.5 0.1,-0.9 0.1,-1.4 m -0.1,2.2 c -0.1,0.4 -0.1,0.9 -0.1,1.2 0,-0.4 0,-0.8 0.1,-1.2 m -0.2,2.1 c 0,0.4 0,0.8 0,1.3 0,-0.4 0,-0.9 0,-1.3 m -0.1,2.1 c 0,0.6 -0.1,1.3 -0.1,2 0,-0.7 0.1,-1.4 0.1,-2 m -0.1,2.6 c -0.1,0.5 -0.1,0.9 -0.1,1.4 0,-0.4 0,-1 0.1,-1.4 m -0.2,2.3 c 0,0.4 0,0.8 0,1.2 0,-0.4 0,-0.8 0,-1.2 m -0.1,2.1 c 0,0.4 0,0.7 -0.1,1.1 0,-0.4 0.1,-0.7 0.1,-1.1 m -0.1,2.1 c -0.1,0.4 -0.1,0.8 -0.1,1.1 0,-0.3 0,-0.7 0.1,-1.1 m -0.2,2.1 c 0,0.6 -0.1,1.2 -0.1,1.9 0.1,-0.7 0.1,-1.3 0.1,-1.9 m -0.2,2.9 c 0,0.3 0,0.7 0,1 0,-0.3 0,-0.7 0,-1 m -0.1,2.1 c 0,0.3 0,0.6 -0.1,0.9 0.1,-0.3 0.1,-0.6 0.1,-0.9 m -0.1,2 c -0.1,0.3 -0.1,0.7 -0.1,1 0,-0.3 0,-0.6 0.1,-1 m -0.2,2 c 0,0.4 0,0.8 -0.1,1.2 0.1,-0.4 0.1,-0.8 0.1,-1.2 m -0.2,3 c 0,0.3 0,0.6 -0.1,1 0.1,-0.4 0.1,-0.7 0.1,-1 m -0.1,2.1 c -0.1,0.3 -0.1,0.6 -0.1,0.9 0,-0.3 0,-0.6 0.1,-0.9 m -0.2,2 c 0,0.3 0,0.6 -0.1,0.9 0.1,-0.3 0.1,-0.6 0.1,-0.9 m -0.1,2.1 c -0.1,0.3 -0.1,0.5 -0.1,0.8 0,-0.3 0,-0.6 0.1,-0.8 m -0.2,2 c 0,0.1 0,0.3 0,0.5 0,-0.2 0,-0.3 0,-0.5 m -0.2,2.9 c 0,0.3 -0.1,0.7 -0.1,0.9 0,-0.2 0.1,-0.6 0.1,-0.9 m -0.2,2 c 0,0.3 0,0.7 0,1 0,-0.3 0,-0.7 0,-1 m -0.1,2.1 c -0.1,0.3 -0.1,0.6 -0.1,0.8 0,-0.2 0,-0.5 0.1,-0.8 m -0.2,2 c 0,0.3 0,0.6 -0.1,0.8 0.1,-0.2 0.1,-0.5 0.1,-0.8 m -0.4,5.1 c 0,0.2 -0.1,0.6 -0.1,0.7 0,-0.2 0.1,-0.4 0.1,-0.7 m -0.2,2 c 0,0.2 0,0.5 0,0.8 0,-0.3 0,-0.6 0,-0.8 m -0.1,1.9 c -0.1,0.3 -0.1,0.7 -0.1,0.9 0,-0.3 0,-0.6 0.1,-0.9 m -0.2,2 c 0,0.3 -0.1,0.6 -0.1,0.8 0,-0.2 0.1,-0.5 0.1,-0.8 m -0.3,3.3 c 0,0.2 0,0.4 -0.1,0.5 0.1,-0.1 0.1,-0.3 0.1,-0.5 m -0.2,1.7 c 0,0.3 0,0.6 0,0.9 0,-0.3 0,-0.6 0,-0.9 m -0.1,2 c -0.1,0.3 -0.1,0.6 -0.1,0.9 0,-0.3 0,-0.6 0.1,-0.9 m -0.2,2 c -0.1,0.3 -0.1,0.6 -0.1,0.8 0,-0.2 0,-0.5 0.1,-0.8 m -0.2,2.1 c 0,0.2 -0.1,0.4 -0.1,0.6 0,-0.2 0.1,-0.4 0.1,-0.6 m -0.3,2.8 c 0,0.4 0,0.6 -0.1,0.9 0.1,-0.3 0.1,-0.6 0.1,-0.9 m -0.2,2.1 c 0,0.3 0,0.6 -0.1,0.9 0.1,-0.3 0.1,-0.6 0.1,-0.9 m -0.2,2 c 0,0.3 0,0.6 -0.1,0.9 0.1,-0.3 0.1,-0.6 0.1,-0.9 m -0.2,2 c 0,0.3 0,0.6 -0.1,1 0.1,-0.4 0.1,-0.7 0.1,-1 m -0.2,2 c 0,0.6 -0.1,1.2 -0.2,1.8 0.1,-0.6 0.2,-1.2 0.2,-1.8 m -0.3,2.8 c 0,0.4 0,0.7 -0.1,1.1 0.1,-0.4 0.1,-0.8 0.1,-1.1 m -0.2,2 c 0,0.4 0,0.7 -0.1,1.1 0.1,-0.4 0.1,-0.7 0.1,-1.1 m -0.2,2 c 0,0.4 -0.1,0.8 -0.1,1.2 0.1,-0.4 0.1,-0.7 0.1,-1.2 m -0.2,2 c 0,0.5 -0.1,1 -0.1,1.5 0,-0.5 0.1,-1 0.1,-1.5 m -0.2,2 c -0.1,0.7 -0.1,1.3 -0.2,2 0.1,-0.6 0.1,-1.3 0.2,-2 m -0.3,2.7 c 0,0.5 -0.1,0.9 -0.1,1.3 0,-0.4 0.1,-0.8 0.1,-1.3 m -0.2,2.2 c -0.1,0.4 -0.1,0.7 -0.1,1.2 0,-0.4 0,-0.8 0.1,-1.2 m -0.2,2 c -0.1,0.4 -0.1,0.9 -0.2,1.2 0.1,-0.3 0.1,-0.8 0.2,-1.2 m -0.3,2 c 0,0.6 -0.1,1.1 -0.1,1.6 0,-0.5 0.1,-1 0.1,-1.6 m -0.2,2.5 c -0.1,0.5 -0.1,1 -0.2,1.5 0.1,-0.5 0.1,-1 0.2,-1.5 m -0.3,2.3 c 0,0.4 -0.1,0.9 -0.1,1.2 0,-0.4 0.1,-0.8 0.1,-1.2 m -0.2,2 c -0.1,0.5 -0.1,0.8 -0.2,1.3 0.1,-0.4 0.1,-0.9 0.2,-1.3 m -0.3,2.1 c 0,0.4 -0.1,1 -0.1,1.5 0,-0.5 0.1,-1 0.1,-1.5 m -0.2,1.9 c -0.1,0.7 -0.2,1.4 -0.2,2.1 0,-0.7 0.1,-1.4 0.2,-2.1 m -0.3,2.3 c 0,0.6 -0.1,1.2 -0.2,1.9 0.1,-0.6 0.2,-1.3 0.2,-1.9 m -0.2,2.4 c -0.1,0.4 -0.2,1 -0.2,1.5 0,-0.5 0.1,-1.1 0.2,-1.5 m -0.3,2.1 c -0.1,0.5 -0.1,1.1 -0.2,1.5 0.1,-0.5 0.1,-1 0.2,-1.5 m -0.3,2 c -0.1,1.4 -0.3,2.8 -0.5,4.2 0.2,-1.4 0.4,-2.8 0.5,-4.2 m -0.5,4.3 c -0.1,0.6 -0.1,1.3 -0.2,1.9 0.1,-0.6 0.1,-1.3 0.2,-1.9 m -0.3,2.3 c 0,0.6 -0.1,1.2 -0.2,1.8 0.1,-0.6 0.1,-1.2 0.2,-1.8 m -0.2,2.1 c -0.1,0.6 -0.2,1.2 -0.3,1.9 0.1,-0.6 0.2,-1.3 0.3,-1.9 m -0.3,2.1 c -0.2,1.4 -0.4,2.8 -0.6,4.2 0.2,-1.4 0.4,-2.8 0.6,-4.2 m -0.6,4.4 c -0.1,0.6 -0.2,1.3 -0.2,1.9 0.1,-0.6 0.1,-1.3 0.2,-1.9 m -0.3,2.2 c -0.1,0.6 -0.1,1.2 -0.2,1.8 0.1,-0.6 0.2,-1.2 0.2,-1.8 m -0.3,2.1 c -0.3,2.8 -0.7,5.6 -1.1,8.5 0.4,-2.9 0.8,-5.7 1.1,-8.5 m -1.1,8.6 c -45.8,327.7 -182.4,604.3 -391.1,804.2 208.7,-199.8 345.3,-476.6 391.1,-804.2 m -391.1,804.2 c -0.9,0.9 -1.9,1.7 -2.8,2.6 0.9,-0.9 1.9,-1.7 2.8,-2.6 m -2.8,2.6 c -0.4,0.4 -0.8,0.8 -1.2,1.2 0.4,-0.4 0.8,-0.8 1.2,-1.2 m -1.7,1.6 c -0.2,0.3 -0.5,0.5 -0.7,0.8 0.2,-0.3 0.5,-0.5 0.7,-0.8 m -1.4,1.3 c -0.1,0.2 -0.3,0.4 -0.5,0.6 0.2,-0.2 0.4,-0.4 0.5,-0.6 m -1.3,1.3 c -0.1,0.1 -0.2,0.2 -0.3,0.2 0.1,0 0.2,-0.1 0.3,-0.2" /><path
         id="path258"
         style="fill:#597dee;fill-opacity:1;fill-rule:nonzero;stroke:none"
         d="m 12793.7,11223.8 -877.1,4.3 -2,38.6 c 38.5,-3.9 77,-6.1 115.3,-6.1 48.5,0 96.9,3.5 145,11.3 205.9,33.6 279.3,110.2 302.4,238.1 15.2,83.7 -10.6,244 18.9,287.9 31.1,46.3 117.8,75.5 202.3,104 358,120.6 650.4,309.8 756.5,672.4 106.2,362.5 15.5,888.6 -251.6,1155.8 -81.9,81.9 -176.4,147.7 -278.7,199.8 207.8,-54.6 387.4,-154.5 532.6,-291.2 0.1,0 0.2,-0.1 0.3,-0.2 0.3,-0.3 0.5,-0.5 0.8,-0.7 0.2,-0.2 0.4,-0.4 0.5,-0.6 0.3,-0.2 0.4,-0.3 0.7,-0.5 0.2,-0.3 0.5,-0.5 0.7,-0.8 0.2,-0.1 0.3,-0.3 0.5,-0.4 0.4,-0.4 0.8,-0.8 1.2,-1.2 0,0 0,0 0,0 0.9,-0.9 1.9,-1.7 2.8,-2.6 0,0 0,0 0,0 208.7,-199.9 345.3,-476.5 391.1,-804.2 0,-0.1 0,-0.1 0,-0.1 0.4,-2.9 0.8,-5.7 1.1,-8.5 0.1,-0.1 0.1,-0.2 0.1,-0.3 0.1,-0.6 0.1,-1.2 0.2,-1.8 0,-0.1 0.1,-0.2 0.1,-0.3 0,-0.6 0.1,-1.3 0.2,-1.9 0,-0.1 0,-0.2 0,-0.2 0.2,-1.4 0.4,-2.8 0.6,-4.2 0,-0.1 0,-0.1 0,-0.2 0.1,-0.7 0.2,-1.3 0.3,-1.9 0,-0.1 0,-0.2 0,-0.3 0.1,-0.6 0.2,-1.2 0.2,-1.8 0,-0.1 0.1,-0.2 0.1,-0.4 0.1,-0.6 0.1,-1.3 0.2,-1.9 0,0 0,-0.1 0,-0.1 0.2,-1.4 0.4,-2.8 0.5,-4.2 0.1,-0.1 0.1,-0.3 0.1,-0.5 0.1,-0.4 0.1,-1 0.2,-1.5 0,-0.2 0,-0.4 0.1,-0.6 0,-0.5 0.1,-1.1 0.2,-1.5 0,-0.2 0,-0.4 0,-0.5 0.1,-0.7 0.2,-1.3 0.2,-1.9 0,-0.1 0.1,-0.1 0.1,-0.2 0,-0.7 0.1,-1.4 0.2,-2.1 0,-0.2 0,-0.2 0.1,-0.4 0,-0.5 0.1,-1.1 0.1,-1.5 0.1,-0.3 0.1,-0.5 0.1,-0.8 0.1,-0.5 0.1,-0.8 0.2,-1.3 0,-0.2 0,-0.5 0.1,-0.8 0,-0.3 0.1,-0.8 0.1,-1.2 0,-0.3 0.1,-0.6 0.1,-0.8 0.1,-0.5 0.1,-1 0.2,-1.5 0,-0.3 0,-0.6 0.1,-0.9 0,-0.5 0.1,-1 0.1,-1.6 0.1,-0.3 0.1,-0.5 0.1,-0.8 0.1,-0.3 0.1,-0.8 0.2,-1.2 0,-0.3 0,-0.5 0.1,-0.8 0,-0.5 0,-0.8 0.1,-1.2 0,-0.3 0.1,-0.6 0.1,-0.9 0,-0.4 0.1,-0.8 0.1,-1.3 0,-0.2 0.1,-0.4 0.1,-0.7 0.1,-0.7 0.1,-1.3 0.2,-2 0,-0.1 0,-0.3 0.1,-0.5 0,-0.5 0.1,-1 0.1,-1.5 0.1,-0.2 0.1,-0.5 0.1,-0.8 0,-0.4 0.1,-0.8 0.1,-1.2 0.1,-0.3 0.1,-0.6 0.1,-0.9 0.1,-0.4 0.1,-0.7 0.1,-1.1 0.1,-0.3 0.1,-0.6 0.1,-0.9 0.1,-0.4 0.1,-0.7 0.1,-1.1 0.1,-0.3 0.1,-0.7 0.1,-1 0.1,-0.6 0.2,-1.2 0.2,-1.8 0.1,-0.4 0.1,-0.7 0.1,-1 0.1,-0.4 0.1,-0.7 0.1,-1 0.1,-0.4 0.1,-0.8 0.1,-1.1 0.1,-0.3 0.1,-0.6 0.1,-0.9 0.1,-0.4 0.1,-0.8 0.1,-1.1 0.1,-0.3 0.1,-0.6 0.1,-0.9 0,-0.4 0.1,-0.8 0.1,-1.2 0.1,-0.3 0.1,-0.5 0.1,-0.9 0.1,-0.7 0.2,-1.4 0.2,-2.2 0,-0.2 0.1,-0.4 0.1,-0.6 0,-0.4 0.1,-0.8 0.1,-1.3 0,-0.2 0,-0.5 0.1,-0.8 0,-0.3 0,-0.8 0.1,-1.1 0,-0.3 0,-0.6 0.1,-0.9 0,-0.3 0,-0.7 0.1,-1.1 0,-0.3 0,-0.6 0,-0.9 0.1,-0.4 0.1,-0.8 0.1,-1.2 0.1,-0.1 0.1,-0.3 0.1,-0.5 0.1,-0.8 0.1,-1.6 0.2,-2.5 0,-0.2 0.1,-0.5 0.1,-0.8 0,-0.3 0,-0.7 0.1,-1.1 0,-0.2 0,-0.6 0.1,-0.9 0,-0.4 0,-0.8 0.1,-1.1 0,-0.3 0,-0.6 0,-0.8 0.1,-0.5 0.1,-0.8 0.1,-1.3 0,-0.1 0.1,-0.5 0.1,-0.7 0.1,-1.4 0.2,-2.8 0.3,-4.3 0.1,-0.2 0.1,-0.5 0.1,-0.8 0,-0.4 0.1,-0.7 0.1,-1.2 0,-0.2 0,-0.5 0.1,-0.8 0,-0.4 0,-0.7 0.1,-1.1 0,-0.3 0,-0.7 0,-1 0.1,-0.3 0.1,-0.7 0.1,-1.1 0,-0.2 0.1,-0.6 0.1,-0.9 0,-0.8 0.1,-1.6 0.2,-2.4 0,-0.2 0,-0.4 0,-0.5 0,-0.4 0.1,-0.8 0.1,-1.2 0,-0.3 0,-0.5 0.1,-0.8 0,-0.4 0,-0.8 0,-1.2 0.1,-0.3 0.1,-0.6 0.1,-0.9 0,-0.4 0.1,-0.7 0.1,-1.1 0,-0.3 0,-0.6 0.1,-0.9 0,-0.4 0,-0.8 0,-1.1 0.1,-0.4 0.1,-0.7 0.1,-1 0.1,-0.6 0.1,-1.2 0.1,-1.8 0.1,-0.4 0.1,-0.8 0.1,-1.2 0,-0.3 0.1,-0.6 0.1,-1 0,-0.3 0,-0.7 0.1,-1 0,-0.3 0,-0.7 0,-1.1 0.1,-0.3 0.1,-0.6 0.1,-0.9 0,-0.4 0.1,-0.7 0.1,-1.1 0,-0.3 0,-0.7 0,-1 0.1,-0.3 0.1,-0.7 0.1,-1 0,-0.7 0.1,-1.3 0.1,-1.9 0.1,-0.3 0.1,-0.6 0.1,-1 0,-0.3 0,-0.7 0.1,-1.1 0,-0.3 0,-0.7 0,-1 0.1,-0.4 0.1,-0.7 0.1,-1.1 0,-0.3 0,-0.6 0.1,-0.9 0,-0.4 0,-0.8 0,-1.2 0,-0.3 0.1,-0.6 0.1,-0.9 0,-0.5 0,-0.9 0.1,-1.4 0,-0.3 0,-0.4 0,-0.6 0,-0.7 0.1,-1.4 0.1,-2 0,-0.3 0,-0.5 0.1,-0.8 0,-0.5 0,-0.9 0,-1.3 0.1,-0.3 0.1,-0.6 0.1,-0.9 0,-0.3 0,-0.8 0.1,-1.2 0,-0.3 0,-0.6 0,-0.8 0,-0.5 0.1,-0.9 0.1,-1.4 0,-0.2 0,-0.5 0,-0.7 0.1,-0.7 0.1,-1.4 0.1,-2.1 v 0 c 0.8,-13.9 1.2,-27.9 1.2,-41.8 0.4,-535.3 -533.9,-1067.8 -1104.9,-1109.5 v 0 0 l 27.2,-302.4" /><path
         id="path260"
         style="fill:#f2f2f2;fill-opacity:1;fill-rule:nonzero;stroke:none"
         d="m 12380.3,9850.27 c -1.3,0 -2.6,0.01 -3.9,0.01 1.3,0 2.6,-0.01 3.9,-0.01 15.6,0 31.4,0.57 47.4,1.74 335.4,24.45 564.4,303.99 564.2,637.39 0.2,-333.4 -228.8,-612.94 -564.2,-637.39 -16,-1.17 -31.8,-1.74 -47.4,-1.74 m -4.2,0.02 c -0.5,0 -1,0 -1.6,0.01 0.6,-0.01 1.1,-0.01 1.6,-0.01 m -1.9,0.01 c -0.5,0.01 -1,0.01 -1.6,0.02 0.6,-0.01 1.1,-0.01 1.6,-0.02 m -2,0.02 c -0.5,0.01 -1,0.02 -1.5,0.02 0.5,0 1,-0.01 1.5,-0.02 m -1.9,0.03 c -0.5,0.01 -1,0.02 -1.6,0.03 0.6,-0.01 1.1,-0.02 1.6,-0.03 m -1.9,0.03 c -1.9,0.04 -3.8,0.08 -5.7,0.13 1.9,-0.05 3.8,-0.09 5.7,-0.13 m -6,0.14 c -0.5,0.02 -1,0.03 -1.5,0.05 0.5,-0.02 1,-0.03 1.5,-0.05 m -2.1,0.06 c -0.4,0.02 -0.8,0.03 -1.3,0.05 0.4,-0.02 0.9,-0.03 1.3,-0.05 m -1.9,0.07 c -0.4,0.01 -0.8,0.03 -1.2,0.04 0.4,-0.01 0.8,-0.03 1.2,-0.04 m -1.9,0.07 c -0.4,0.01 -0.8,0.03 -1.2,0.04 0.4,-0.01 0.8,-0.03 1.2,-0.04 m -1.9,0.07 c -0.4,0.01 -0.8,0.03 -1.2,0.05 0.4,-0.02 0.8,-0.03 1.2,-0.05 m -1.8,0.08 c -0.4,0.01 -0.9,0.03 -1.3,0.05 0.4,-0.02 0.8,-0.03 1.3,-0.05 m -1.9,0.08 c -0.6,0.03 -1.1,0.05 -1.7,0.08 0.5,-0.02 1.1,-0.05 1.7,-0.08 m -2.7,0.13 c -0.3,0.02 -0.6,0.03 -0.8,0.04 0.2,-0.01 0.5,-0.02 0.8,-0.04 m -1.9,0.1 c -0.2,0.01 -0.5,0.03 -0.8,0.04 0.3,-0.01 0.6,-0.03 0.8,-0.04 m -1.8,0.1 c -0.3,0.01 -0.5,0.03 -0.7,0.04 0.2,-0.01 0.4,-0.03 0.7,-0.04 m -1.9,0.11 c -0.2,0.01 -0.4,0.02 -0.6,0.04 0.2,-0.02 0.4,-0.03 0.6,-0.04 m -1.8,0.11 c -0.2,0.01 -0.3,0.02 -0.5,0.03 0.2,-0.01 0.3,-0.02 0.5,-0.03 m -1.8,0.11 c -0.1,0.01 -0.2,0.02 -0.3,0.03 0.1,-0.01 0.2,-0.02 0.3,-0.03" /><path
         id="path262"
         style="fill:#597dee;fill-opacity:1;fill-rule:nonzero;stroke:none"
         d="m 12380.3,9850.27 c -1.3,0 -2.6,0.01 -3.9,0.01 -0.1,0.01 -0.2,0.01 -0.3,0.01 -0.5,0 -1,0 -1.6,0.01 -0.1,0 -0.2,0 -0.3,0 -0.5,0.01 -1,0.01 -1.6,0.02 -0.1,0 -0.3,0 -0.4,0 -0.5,0.01 -1,0.02 -1.5,0.02 -0.1,0.01 -0.2,0.01 -0.4,0.01 -0.5,0.01 -1,0.02 -1.6,0.03 -0.1,0 -0.2,0 -0.3,0 -1.9,0.04 -3.8,0.08 -5.7,0.13 -0.1,0.01 -0.2,0.01 -0.3,0.01 -0.5,0.02 -1,0.03 -1.5,0.05 -0.2,0 -0.4,0.01 -0.6,0.01 -0.4,0.02 -0.9,0.03 -1.3,0.05 -0.2,0 -0.4,0.01 -0.6,0.02 -0.4,0.01 -0.8,0.03 -1.2,0.04 -0.3,0.01 -0.5,0.02 -0.7,0.03 -0.4,0.01 -0.8,0.03 -1.2,0.04 -0.2,0.01 -0.4,0.02 -0.7,0.03 -0.4,0.02 -0.8,0.03 -1.2,0.05 -0.2,0.01 -0.4,0.02 -0.6,0.03 -0.5,0.02 -0.9,0.03 -1.3,0.05 -0.2,0.01 -0.4,0.02 -0.6,0.03 -0.6,0.03 -1.2,0.06 -1.7,0.08 -0.4,0.02 -0.7,0.04 -1,0.05 -0.3,0.02 -0.6,0.03 -0.8,0.04 -0.4,0.02 -0.7,0.04 -1.1,0.06 -0.2,0.01 -0.5,0.03 -0.8,0.04 -0.3,0.02 -0.7,0.04 -1,0.06 -0.3,0.01 -0.5,0.03 -0.7,0.04 -0.4,0.02 -0.8,0.05 -1.2,0.07 -0.2,0.01 -0.4,0.02 -0.6,0.04 -0.4,0.02 -0.8,0.04 -1.2,0.07 -0.2,0.01 -0.3,0.02 -0.5,0.03 -0.4,0.03 -0.9,0.06 -1.3,0.08 -0.1,0.01 -0.2,0.02 -0.3,0.03 -277.1,18.24 -489.9,217.46 -547.7,464.06 44.7,-63.5 97.3,-121.1 158.9,-168.1 93.3,-71 208.2,-116.6 325.3,-116.6 2.8,0 5.6,0 8.4,0.1 137.6,2.6 271.2,70 360.6,174.6 89.4,104.7 135,244 132.1,381.6 -1.6,72 -16,144.2 -46.7,209.4 -66.1,140.5 -207,239 -359.5,268.5 5,0.5 10,1.1 15,1.5 15.7,1.1 31.2,1.7 46.7,1.7 285.6,0 540.5,-193.1 559.1,-540.2 0.7,-13 1,-25.9 1,-38.8 0.2,-333.4 -228.8,-612.94 -564.2,-637.39 -16,-1.17 -31.8,-1.74 -47.4,-1.74" /></g></g></svg>