<svg width="179.82000122070312px" height="124.439990234375px" xmlns="http://www.w3.org/2000/svg" viewBox="160.08999938964843 12.780004882812499 179.82000122070312 124.439990234375" style="background: none;" preserveAspectRatio="xMidYMid"><defs><filter id="editing-extrude-glow"><feFlood flood-color="#333333" result="flood-1"></feFlood><feMorphology operator="erode" radius="1" in="SourceAlpha" result="erode"></feMorphology><feComposite operator="in" in="flood-1" in2="erode" result="comp1"></feComposite><feConvolveMatrix order="3,3" divisor="1" in="comp1" result="convolve" kernelMatrix="0 0 0 1 1 1 0 0 0"></feConvolveMatrix><feOffset dx="-3" dy="0" in="convolve" result="extrude"></feOffset><feComposite operator="in" in="flood-1" in2="extrude" result="comp-extrude"></feComposite><feFlood flood-color="#000000" result="flood-2"></feFlood><feComposite operator="in" in="flood-2" in2="SourceAlpha" result="comp2"></feComposite><feMorphology operator="dilate" radius="1" in="comp2" result="dilate"></feMorphology><feOffset dx="-4.5" dy="0" in="dilate" result="offset"></feOffset><feGaussianBlur in="offset" stdDeviation="5.8" result="blur"></feGaussianBlur><feComponentTransfer in="blur" result="shadow"><feFuncA type="linear" slope="0.8" intercept="-0.2"></feFuncA></feComponentTransfer><feMerge><feMergeNode in="shadow"></feMergeNode><feMergeNode in="comp-extrude"></feMergeNode><feMergeNode in="SourceGraphic"></feMergeNode></feMerge></filter></defs><g filter="url(#editing-extrude-glow)"><g transform="translate(192.01500535011292, 97.46500015258789)"><path d="M42.62-26.56L42.62-26.56L42.62-26.56Q42.62 0.70 13.06 0.70L13.06 0.70L13.06 0.70Q8.32 0.70 0.51-0.45L0.51-0.45L7.68-38.27L7.68-38.27Q8.19-40.83 8.51-42.30L8.51-42.30L8.51-42.30Q18.24-43.01 22.56-43.01L22.56-43.01L22.56-43.01Q26.88-43.01 30.85-42.11L30.85-42.11L30.85-42.11Q34.82-41.22 37.44-39.23L37.44-39.23L37.44-39.23Q42.62-35.33 42.62-26.56ZM29.44-28.93L29.44-28.93L29.44-28.93Q29.44-38.46 22.59-38.46L22.59-38.46L21.95-38.46L21.95-38.46Q21.63-38.46 21.31-38.40L21.31-38.40L14.72-4.03L14.72-4.03Q14.98-3.90 15.23-3.90L15.23-3.90L15.74-3.90L15.74-3.90Q18.11-3.90 20.58-5.38L20.58-5.38L20.58-5.38Q23.04-6.85 24.96-9.86L24.96-9.86L24.96-9.86Q29.44-16.83 29.44-28.93ZM51.01-31.17L51.01-31.17L51.01-31.17Q48.83-32.83 48.83-36.38L48.83-36.38L48.83-36.38Q48.83-39.94 51.17-41.79L51.17-41.79L51.17-41.79Q53.50-43.65 57.54-43.65L57.54-43.65L57.54-43.65Q60.10-43.65 66.18-42.75L66.18-42.75L70.53-42.11L70.53-42.11Q72.70-41.86 74.98-41.86L74.98-41.86L74.98-41.86Q77.25-41.86 78.78-42.82L78.78-42.82L78.78-42.82Q81.09-40.77 81.09-37.82L81.09-37.82L81.09-37.82Q81.09-34.88 78.46-32.77L78.46-32.77L78.46-32.77Q75.78-30.53 72.32-30.53L72.32-30.53L72.32-30.53Q70.66-30.53 67.97-30.98L67.97-30.98L67.97-30.98Q64.83-21.12 64.83-14.27L64.83-14.27L64.83-14.27Q64.83-7.42 68.29-3.84L68.29-3.84L68.29-3.84Q66.69-0.96 64.32 0.16L64.32 0.16L64.32 0.16Q61.95 1.28 58.40 1.28L58.40 1.28L58.40 1.28Q54.85 1.28 52.64-0.67L52.64-0.67L52.64-0.67Q50.43-2.62 50.43-6.66L50.43-6.66L50.43-6.66Q50.43-11.33 52.99-19.01L52.99-19.01L52.99-19.01Q55.55-26.62 59.39-32.45L59.39-32.45L59.39-32.45Q57.54-32.64 55.62-32.64L55.62-32.64L55.62-32.64Q51.65-32.64 51.01-31.17ZM104-29.57L104-29.57L104-29.57Q104.96-31.49 104.96-33.28L104.96-33.28L104.96-33.28Q104.96-35.07 104.77-36.06L104.77-36.06L104.77-36.06Q104.58-37.06 104.13-37.82L104.13-37.82L104.13-37.82Q103.17-39.49 101.25-39.49L101.25-39.49L101.25-39.49Q98.88-39.49 96.96-37.76L96.96-37.76L96.96-37.76Q94.91-35.97 94.91-33.15L94.91-33.15L94.91-33.15Q94.91-31.36 96.16-29.98L96.16-29.98L96.16-29.98Q97.41-28.61 99.33-27.33L99.33-27.33L99.33-27.33Q101.25-26.05 103.42-24.77L103.42-24.77L103.42-24.77Q105.60-23.49 107.52-21.95L107.52-21.95L107.52-21.95Q111.94-18.43 111.94-13.70L111.94-13.70L111.94-13.70Q111.94-10.50 110.24-7.78L110.24-7.78L110.24-7.78Q108.54-5.06 105.73-3.07L105.73-3.07L105.73-3.07Q99.58 1.28 91.46 1.28L91.46 1.28L91.46 1.28Q84.86 1.28 81.47-0.86L81.47-0.86L81.47-0.86Q78.08-3.01 78.08-6.27L78.08-6.27L78.08-6.27Q78.08-12.10 82.62-13.57L82.62-13.57L82.62-13.57Q83.90-14.02 85.86-14.02L85.86-14.02L85.86-14.02Q87.81-14.02 90.05-13.18L90.05-13.18L90.05-13.18Q89.02-10.56 89.02-8.19L89.02-8.19L89.02-8.19Q89.02-3.07 92.67-3.07L92.67-3.07L92.67-3.07Q95.04-3.07 96.99-4.80L96.99-4.80L96.99-4.80Q98.94-6.53 98.94-8.48L98.94-8.48L98.94-8.48Q98.94-10.43 97.70-11.84L97.70-11.84L97.70-11.84Q96.45-13.25 94.59-14.37L94.59-14.37L94.59-14.37Q92.74-15.49 90.59-16.58L90.59-16.58L90.59-16.58Q88.45-17.66 86.59-19.20L86.59-19.20L86.59-19.20Q82.24-22.72 82.24-28.35L82.24-28.35L82.24-28.35Q82.24-32 84.03-34.85L84.03-34.85L84.03-34.85Q85.82-37.70 88.70-39.62L88.70-39.62L88.70-39.62Q94.46-43.52 101.54-43.52L101.54-43.52L101.54-43.52Q108.61-43.52 112.03-41.41L112.03-41.41L112.03-41.41Q115.46-39.30 115.46-35.71L115.46-35.71L115.46-35.71Q115.46-32.58 113.02-30.59L113.02-30.59L113.02-30.59Q110.91-28.93 108.35-28.93L108.35-28.93L108.35-28.93Q105.79-28.93 104-29.57Z" fill="#eb6c6c"></path></g></g><style>text {
  font-size: 64px;
  font-family: Arial Black;
  dominant-baseline: central;
  text-anchor: middle;
}</style></svg>